<?xml version="1.0" encoding="UTF-8" standalone="no"?>
<!-- Created with Inkscape (http://www.inkscape.org/) -->

<svg
   version="1.1"
   id="svg86"
   xml:space="preserve"
   width="622.36322"
   height="167.46507"
   viewBox="0 0 622.36322 167.46508"
   sodipodi:docname="jco-logo.svg"
   inkscape:version="1.2.1 (9c6d41e410, 2022-07-14, custom)"
   xmlns:inkscape="http://www.inkscape.org/namespaces/inkscape"
   xmlns:sodipodi="http://sodipodi.sourceforge.net/DTD/sodipodi-0.dtd"
   xmlns="http://www.w3.org/2000/svg"
   xmlns:svg="http://www.w3.org/2000/svg"><defs
     id="defs90"><clipPath
       clipPathUnits="userSpaceOnUse"
       id="clipPath102"><path
         d="M 0,0 H 1920 V 1080 H 0 Z"
         id="path100" /></clipPath><clipPath
       clipPathUnits="userSpaceOnUse"
       id="clipPath112"><path
         d="m 543.28,447.1493 h 833.4401 V 632.8507 H 543.28 Z"
         id="path110" /></clipPath></defs><sodipodi:namedview
     id="namedview88"
     pagecolor="#ffffff"
     bordercolor="#999999"
     borderopacity="1"
     inkscape:pageshadow="0"
     inkscape:pageopacity="0"
     inkscape:pagecheckerboard="0"
     showgrid="false"
     inkscape:zoom="1.0496427"
     inkscape:cx="375.36583"
     inkscape:cy="2.3817629"
     inkscape:window-width="5116"
     inkscape:window-height="1416"
     inkscape:window-x="2"
     inkscape:window-y="22"
     inkscape:window-maximized="1"
     inkscape:current-layer="g92"
     inkscape:showpageshadow="0"
     inkscape:deskcolor="#d1d1d1" /><g
     id="g92"
     inkscape:groupmode="layer"
     inkscape:label="jco-guidelines"
     transform="matrix(1.3333333,0,0,-1.3333333,-8.8183319,1203.7326)"><path
       d="m 168.23895,872.92549 c -3.18362,0 -5.54164,-0.57305 -7.99517,-1.26071 -5.38242,-1.50794 -6.91692,-6.85325 -3.21437,-11.02912 1.33713,-1.50585 2.9268,-2.81218 4.5101,-4.0729 3.30674,-2.63604 3.34917,-2.63181 7.3096,-1.12596 3.28764,1.25012 6.56678,2.54794 9.26649,4.91129 2.0025,1.75308 3.03608,3.90631 2.50974,6.59751 -0.53271,2.72096 -2.83557,3.85751 -4.97496,4.7542 -2.40468,0.88719 -4.47612,1.44432 -7.41143,1.22569 m 6.59752,-54.89836 c -6.15076,4.85503 -12.13812,9.59863 -18.16362,14.29337 -0.32792,0.25579 -1.03259,0.26002 -1.46661,0.10935 -2.99579,-1.04215 -6.06481,-1.94734 -8.91733,-3.30461 -2.97559,-1.41671 -5.9491,-3.01703 -8.54057,-5.02908 -4.074,-3.16557 -4.01565,-8.45461 -0.13689,-11.49393 3.0223,-2.36861 6.65904,-2.75169 10.31384,-2.65937 9.60604,0.24405 18.32072,3.54019 26.91118,8.08427 m -34.68345,27.52452 c -2.38349,2.87058 -4.88582,5.50767 -6.95622,8.44934 -6.64955,9.45004 -3.68768,21.22418 3.98908,27.89277 5.64034,4.8996 12.40763,7.16953 19.61854,8.23708 8.36124,1.23843 16.73417,1.2066 24.99463,-0.82664 6.50201,-1.60246 12.35247,-4.41673 16.46357,-9.9552 6.78853,-9.14551 5.36968,-22.08375 -3.15602,-29.61616 -3.61132,-3.18999 -7.77336,-5.46628 -12.14234,-7.41043 -0.58052,-0.25892 -1.16098,-0.51789 -1.99723,-0.89141 4.5505,-3.61979 8.95027,-7.11755 13.43067,-10.68211 13.88269,10.1186 27.73359,20.21492 41.8455,30.50017 v -1.58863 c 0,-8.03547 -0.0201,-16.06989 0.0244,-24.10322 0.005,-1.01239 -0.33005,-1.60987 -1.12805,-2.19138 -7.2215,-5.25512 -14.41545,-10.54839 -21.61467,-15.83321 -0.39691,-0.2908 -0.7779,-0.6028 -1.27026,-0.98483 10.77547,-8.5162 21.47459,-16.97081 32.41138,-25.6133 -0.68871,-0.0498 -1.10258,-0.10611 -1.51645,-0.10611 -10.9262,-0.005 -21.8524,-0.0181 -32.77859,0.0287 -0.71846,0.002 -1.56316,0.30348 -2.13089,0.74601 -4.65979,3.62614 -9.29723,7.28199 -13.87001,11.01748 -1.03891,0.84893 -1.74781,0.94021 -2.93953,0.243 -8.90355,-5.21582 -18.28251,-9.32802 -28.40638,-11.53636 -11.11085,-2.42384 -22.29597,-3.30252 -33.51297,-0.76407 -6.71745,1.52067 -12.73768,4.3743 -17.23186,9.85645 -6.41715,7.82644 -7.34995,22.05615 1.98553,30.87264 5.59039,5.27955 12.30894,8.62236 19.26302,11.59905 2.22749,0.95294 4.49528,1.80829 6.62512,2.66041"
       style="display:inline;fill:#fecd07;fill-opacity:1;fill-rule:nonzero;stroke:none;stroke-width:0.548901"
       id="path114" /><path
       d="m 363.37861,849.9821 c -4.76995,2.14681 -9.30552,4.12812 -13.78839,6.21866 -8.75881,4.08459 -17.79536,7.30856 -27.35776,8.89401 -9.05522,1.50053 -18.09781,1.8274 -26.95377,-1.109 -8.60622,-2.85357 -14.66663,-8.35274 -16.49941,-17.48974 -1.77515,-8.8547 -0.71412,-17.23186 5.87488,-24.10426 3.94331,-4.1111 8.99704,-6.2505 14.47781,-7.43695 8.55352,-1.85073 17.07191,-1.22888 25.57768,0.42024 10.31494,2.00036 19.89106,6.04675 29.34314,10.45821 2.9948,1.39865 6.03077,2.7103 9.22647,4.14293 0.0412,-0.68338 0.0955,-1.15247 0.0955,-1.6215 0.005,-8.6807 -0.0159,-17.36135 0.0285,-26.04095 0.005,-1.09835 -0.28762,-1.63853 -1.36292,-2.06299 -16.65255,-6.58055 -33.82162,-10.84979 -51.80141,-11.13314 -12.57861,-0.19738 -24.74116,1.95579 -35.91129,8.06835 -14.15241,7.74362 -22.46167,19.59203 -24.49283,35.66719 -1.28936,10.20774 -0.14858,20.1014 4.37216,29.43255 5.16066,10.65559 13.61236,17.88138 24.31977,22.61224 11.8557,5.23811 24.36021,6.64527 37.14521,5.80589 15.97466,-1.04851 31.30491,-4.97392 46.16584,-10.84979 1.21856,-0.48183 1.58523,-1.07288 1.5748,-2.36653 -0.0659,-8.53102 -0.034,-17.06313 -0.034,-25.59524 z"
       style="fill:#fecd07;fill-opacity:1;fill-rule:nonzero;stroke:none;stroke-width:0.548901"
       id="path116" /><path
       d="m 421.69108,808.98882 c 2.95144,0.33214 5.5417,0.45421 8.06006,0.94235 5.17888,1.00284 9.4142,3.47866 10.86878,8.88972 0.68009,2.52994 0.84366,5.2997 0.69601,7.93041 -0.34361,6.18474 -3.84231,10.33827 -9.83081,11.95237 -5.95338,1.60565 -11.99074,1.60883 -17.9787,0.23559 -5.46211,-1.25221 -9.30935,-4.39126 -10.39563,-10.13556 -0.36502,-1.92719 -0.47754,-3.94665 -0.376,-5.90777 0.3491,-6.7259 3.80443,-11.02489 10.34459,-12.63684 2.91192,-0.71736 5.95777,-0.8946 8.6117,-1.27027 m -0.0456,-19.63978 c -9.24733,0.14436 -18.62091,1.22998 -27.39179,5.33257 -9.95816,4.6566 -16.50709,12.14339 -18.23394,23.16619 -1.7466,11.14373 0.0478,21.48733 8.40477,29.83265 5.27658,5.26994 11.8601,8.25728 19.03314,9.8745 14.26263,3.21338 28.47203,3.13587 42.43112,-1.57056 8.04195,-2.71135 14.71054,-7.36581 18.9003,-14.98637 3.72704,-6.77689 4.55259,-14.10131 3.56566,-21.62954 -1.91786,-14.6107 -11.13665,-22.75227 -24.5194,-27.01728 -7.10991,-2.26674 -14.46298,-2.9353 -22.18986,-3.00216"
       style="fill:#fecd07;fill-opacity:1;fill-rule:nonzero;stroke:none;stroke-width:0.548901"
       id="path118" /><path
       d="m 69.367272,889.10692 h 27.857757 v -1.64807 c 0,-18.94465 0.01487,-37.88826 -0.0085,-56.83297 -0.0096,-7.23001 -0.728007,-14.36341 -3.563574,-21.11588 -4.183282,-9.96266 -11.953412,-15.6698 -22.171803,-18.34723 -8.354874,-2.18929 -16.871069,-2.4981 -25.427553,-1.73826 -11.427126,1.01558 -22.481713,3.71211 -33.263551,7.60354 -1.202367,0.43402 -1.535605,1.0209 -1.52814,2.24127 0.05302,8.13202 0.02651,16.26514 0.02755,24.3982 v 1.83487 c 0.94872,-0.35657 1.671403,-0.62509 2.389859,-0.90206 7.211952,-2.7708 14.260497,-6.00745 21.853441,-7.69905 6.420327,-1.42945 12.884128,-2.41209 19.485922,-1.66926 5.016294,0.56454 9.516896,2.11288 12.170941,6.86175 1.383834,2.47368 1.891073,5.1999 2.08209,7.98667 0.09551,1.38378 0.09024,2.77612 0.09128,4.16418 0.0055,17.65424 0.0044,35.30953 0.0044,52.96486 v 1.89744 z"
       style="fill:#fecd07;fill-opacity:1;fill-rule:nonzero;stroke:none;stroke-width:0.548901"
       id="path120" /></g></svg>
